<svg xmlns="http://www.w3.org/2000/svg" width="667" height="1000" viewBox="0 0 667 1000"><rect width="100%" height="100%" fill="#DDDDDD"/><path fill="#999999" d="m253.375 378-16.25-25.75q8.5-7.5 18.62-14.25 10.13-6.75 21.88-11.75 11.75-5 25.5-7.88 13.75-2.87 29.75-2.87 21.75 0 39.63 6 17.87 6 30.62 17.12 12.75 11.13 19.75 26.88 7 15.75 7 35.25 0 19-5.5 32.87-5.5 13.88-13.75 24.13-8.25 10.25-18.12 17.75-9.88 7.5-18.63 14.12-8.75 6.63-15.12 13-6.38 6.38-7.63 14.38l-5.75 36.5h-42.25l-4.25-40.75q-1.5-11.75 3.37-20.63 4.88-8.87 13-16.25 8.13-7.37 18.13-14.25 10-6.87 18.75-15 8.75-8.12 14.63-18.25 5.87-10.12 5.87-24.12 0-9-3.37-16.13-3.38-7.12-9.38-12.25-6-5.12-14.37-7.87-8.38-2.75-18.13-2.75-14.25 0-24.13 3.12-9.87 3.13-16.75 7-6.87 3.88-11.62 7-4.75 3.13-8.5 3.13-9 0-13-7.5Zm31 269q0-7.75 2.87-14.75 2.88-7 7.88-12t12-8q7-3 15-3t14.88 3q6.87 3 12 8 5.12 5 8.12 12 3 7 3 14.75 0 8-3 14.87-3 6.88-8.12 11.88-5.13 5-12 7.88-6.88 2.87-14.88 2.87t-15-2.87q-7-2.88-12-7.88t-7.88-11.88q-2.87-6.87-2.87-14.87Z"/></svg>